<svg width="50" height="37" viewBox="0 0 50 37" fill="none" xmlns="http://www.w3.org/2000/svg">
<path d="M10.1667 4V14L15.5 8.7907V4H10.1667Z" fill="#FD3502"/>
<path d="M0 24H7L24.5 6.5H25.5L43 24H49.5L25.5 0H24.5L15.5 8.7907L10.1667 14L0 24Z" fill="#FD3502"/>
<path d="M40 36.5V24L34.5 18.5V24.5H27.5V20H22.5V36.5H27.5V30H34.5V36.5H40Z" fill="#FD3502"/>
<path d="M10 24V36.5H15.5V30H20.6667V24.5H15.5V18.6667L10 24Z" fill="#FF7E00"/>
<path d="M29.5 13.5H20.6667L15.5 18.6667H34.6667L29.5 13.5Z" fill="#FF7E00"/>
</svg>
