<svg width="311" height="49" viewBox="0 0 311 49" fill="none" xmlns="http://www.w3.org/2000/svg">
<path d="M10.064 4.05479V14.1918L15.3434 8.91112V4.05479H10.064Z" fill="#FD3502"/>
<path d="M0 24.3288H6.92929L24.2525 6.58904H25.2424L42.5657 24.3288H49L25.2424 0H24.2525L15.3434 8.91112L10.064 14.1918L0 24.3288Z" fill="#FD3502"/>
<path d="M39.596 37V24.3288L34.1515 18.7534V24.8356H27.2222V20.274H22.2727V37H27.2222V30.411H34.1515V37H39.596Z" fill="#FD3502"/>
<path d="M9.89899 24.3288V37H15.3434V30.411H20.4579V24.8356H15.3434V18.9224L9.89899 24.3288Z" fill="#FF7E00"/>
<path d="M29.202 13.6849H20.4579L15.3434 18.9224H34.3165L29.202 13.6849Z" fill="#FF7E00"/>
<path fill-rule="evenodd" clip-rule="evenodd" d="M84.2424 33.4187L85.5925 36.4417H91.355V35.5485L80.9495 12.0859H78.414L68.0414 35.5485V36.4417H73.804L75.1541 33.4187H84.2424ZM79.6653 21.8419L82.3325 28.1628H77.0639L79.6653 21.8419Z" fill="black"/>
<path fill-rule="evenodd" clip-rule="evenodd" d="M180.885 35.5485L176.373 27.9223C182.202 23.8 180.555 12.4294 171.5 12.3951H161.391V36.4417H167.285V29.3651H170.347L174.299 36.4417H180.885V35.5485ZM171.5 17.8914C174.859 17.9258 174.694 23.9031 171.5 23.9031H167.285V17.8914C167.744 17.8914 168.21 17.8877 168.678 17.8839C169.622 17.8762 170.576 17.8685 171.5 17.8914Z" fill="black"/>
<path d="M197.06 29.3651C197.06 32.182 189.848 32.1476 189.848 29.0903H184.152C184.02 39.6708 202.789 39.499 202.789 29.3995C202.789 23.3878 198.311 22.6664 193.734 22.1511C191.66 21.9107 189.947 21.5328 190.079 19.7121C190.277 16.8609 196.467 16.586 196.467 19.7808H202.065C202.197 9.4064 184.284 9.4064 184.481 19.7808C184.547 25.0024 187.84 26.7887 192.845 27.1666C195.15 27.304 197.06 27.6818 197.06 29.3651Z" fill="black"/>
<path fill-rule="evenodd" clip-rule="evenodd" d="M242.344 36.8539C244.802 36.8539 246.855 35.9493 248.501 34.1401C250.17 32.3309 251.004 30.1781 251.004 27.6818C251.004 25.1627 250.181 23.0099 248.534 21.2236C246.91 19.4144 244.868 18.5098 242.409 18.5098C239.951 18.5098 237.887 19.4144 236.219 21.2236C234.572 23.0328 233.749 25.1856 233.749 27.6818C233.749 30.201 234.561 32.3652 236.186 34.1744C237.832 35.9608 239.885 36.8539 242.344 36.8539ZM247.217 33.0408C245.878 34.5294 244.275 35.2737 242.409 35.2737C240.478 35.2737 238.842 34.5409 237.503 33.0752C236.164 31.5866 235.494 29.7888 235.494 27.6818C235.494 25.5749 236.164 23.7886 237.503 22.3229C238.842 20.8343 240.456 20.09 242.344 20.09C244.253 20.09 245.878 20.8343 247.217 22.3229C248.578 23.7886 249.259 25.5749 249.259 27.6818C249.259 29.7659 248.578 31.5522 247.217 33.0408Z" fill="black"/>
<path d="M258.731 34.8615C259.938 36.1898 261.584 36.8539 263.67 36.8539C266.37 36.8539 268.39 35.6287 269.729 33.1782V36.4417H271.342V18.922H269.729V29.0559C269.729 30.8652 269.169 32.3652 268.049 33.5561C266.952 34.7241 265.569 35.3081 263.9 35.3081C262.232 35.3081 260.926 34.7699 259.982 33.6935C259.038 32.6171 258.566 31.1629 258.566 29.3308V18.922H256.952V29.6399C256.952 31.7698 257.545 33.5103 258.731 34.8615Z" fill="black"/>
<path d="M280.539 36.0982C281.79 36.5562 283.019 36.7852 284.227 36.7852C285.873 36.7852 287.245 36.3157 288.343 35.3768C289.462 34.4378 290.022 33.2011 290.022 31.6667C290.022 30.911 289.868 30.2583 289.561 29.7086C289.276 29.1361 288.826 28.6552 288.211 28.2658C287.618 27.8765 287.059 27.5788 286.532 27.3727C286.005 27.1666 285.324 26.9375 284.49 26.6856C283.875 26.5024 283.392 26.3536 283.041 26.239C282.712 26.1245 282.306 25.9642 281.823 25.7581C281.362 25.5291 281 25.3115 280.736 25.1054C280.495 24.8993 280.275 24.6359 280.078 24.3153C279.902 23.9947 279.814 23.6512 279.814 23.2847C279.814 22.3687 280.165 21.6244 280.868 21.0518C281.57 20.4564 282.492 20.1587 283.634 20.1587C285.39 20.1587 287.113 20.7427 288.804 21.9107L289.66 20.5022C287.816 19.2197 285.829 18.5785 283.7 18.5785C282.075 18.5785 280.747 19.0365 279.715 19.9526C278.684 20.8457 278.168 22.0023 278.168 23.4222C278.168 24.0405 278.288 24.6016 278.53 25.1054C278.793 25.5864 279.068 25.9757 279.353 26.2734C279.661 26.5711 280.132 26.8688 280.769 27.1666C281.406 27.4643 281.9 27.6704 282.251 27.7849C282.602 27.8994 283.162 28.0712 283.93 28.3002C285.379 28.7353 286.477 29.1933 287.223 29.6743C287.991 30.1552 288.376 30.8652 288.376 31.8041C288.376 32.8347 287.991 33.6592 287.223 34.2775C286.455 34.8958 285.489 35.205 284.325 35.205C282.218 35.205 280.209 34.4378 278.299 32.9034L277.345 34.2431C278.245 34.9989 279.309 35.6172 280.539 36.0982Z" fill="black"/>
<path fill-rule="evenodd" clip-rule="evenodd" d="M297.73 34.2775C299.354 35.9951 301.297 36.8539 303.558 36.8539C306.236 36.8539 308.552 35.7546 310.506 33.5561L309.386 32.5255C307.74 34.3576 305.819 35.2737 303.624 35.2737C301.912 35.2737 300.419 34.6554 299.146 33.4187C297.894 32.1591 297.192 30.4758 297.038 28.3689H310.967C310.989 28.1857 311 27.9567 311 27.6818C311 25.0482 310.287 22.8611 308.86 21.1205C307.455 19.38 305.6 18.5098 303.295 18.5098C301.034 18.5098 299.135 19.3915 297.598 21.1549C296.083 22.9183 295.326 25.0825 295.326 27.6475C295.326 30.3499 296.127 32.5599 297.73 34.2775ZM307.51 22.0137C308.541 23.3191 309.123 24.9337 309.255 26.8574H297.038C297.192 24.9108 297.85 23.2962 299.014 22.0137C300.177 20.7083 301.582 20.0556 303.229 20.0556C305.051 20.0556 306.478 20.7083 307.51 22.0137Z" fill="black"/>
<path d="M57.993 28.6437H65.402V23.1473H57.993V17.8914H66.3569V12.3951H52V36.4417H57.993V28.6437Z" fill="black"/>
<path d="M91.8831 17.8914H97.5469V36.4417H103.375V17.8914H109.006V12.3951H91.8831V17.8914Z" fill="black"/>
<path d="M133.16 36.4417V12.3951H127.134V21.1205H120.022V12.3951H113.996V36.4417H120.022V26.7887H127.134V36.4417H133.16Z" fill="black"/>
<path d="M154.752 17.8914V12.3951H140.362V36.4417H155.048V30.9797H146.224V26.7543H154.061V21.2923H146.224V17.8914H154.752Z" fill="black"/>
<path d="M208.929 12.3951V36.4417H210.641V25.1741H225.393V36.4417H227.105V12.3951H225.393V23.5252H210.641V12.3951H208.929Z" fill="black"/>
</svg>
