<svg width="312" height="37" viewBox="0 0 312 37" fill="none" xmlns="http://www.w3.org/2000/svg">
<path d="M197.311 29.202C197.311 31.908 190.084 31.875 190.084 28.938H184.375C184.243 39.102 203.053 38.937 203.053 29.235C203.053 23.46 198.565 22.767 193.978 22.272C191.899 22.041 190.183 21.678 190.315 19.929C190.513 17.19 196.717 16.926 196.717 19.995H202.327C202.459 10.029 184.507 10.029 184.705 19.995C184.771 25.011 188.071 26.727 193.087 27.09C195.397 27.222 197.311 27.585 197.311 29.202Z" fill="black"/>
<path fill-rule="evenodd" clip-rule="evenodd" d="M85.6027 36L84.2497 33.096H75.1417L73.7887 36H68.0137V35.142L78.4087 12.603H80.9497L91.3777 35.142V36H85.6027ZM82.3357 28.047L79.6627 21.975L77.0557 28.047H82.3357Z" fill="black"/>
<path fill-rule="evenodd" clip-rule="evenodd" d="M176.58 27.816L181.101 35.142V36H174.501L170.541 29.202H167.472V36H161.565V12.9H171.696C180.771 12.933 182.421 23.856 176.58 27.816ZM171.696 23.955C174.897 23.955 175.062 18.213 171.696 18.18C170.77 18.158 169.814 18.1654 168.868 18.1727C168.398 18.1764 167.932 18.18 167.472 18.18V23.955H171.696Z" fill="black"/>
<path fill-rule="evenodd" clip-rule="evenodd" d="M248.864 33.789C247.214 35.527 245.157 36.396 242.693 36.396C240.229 36.396 238.172 35.538 236.522 33.822C234.894 32.084 234.08 30.005 234.08 27.585C234.08 25.187 234.905 23.119 236.555 21.381C238.227 19.643 240.295 18.774 242.759 18.774C245.223 18.774 247.269 19.643 248.897 21.381C250.547 23.097 251.372 25.165 251.372 27.585C251.372 29.983 250.536 32.051 248.864 33.789ZM242.759 34.878C244.629 34.878 246.235 34.163 247.577 32.733C248.941 31.303 249.623 29.587 249.623 27.585C249.623 25.561 248.941 23.845 247.577 22.437C246.235 21.007 244.607 20.292 242.693 20.292C240.801 20.292 239.184 21.007 237.842 22.437C236.5 23.845 235.829 25.561 235.829 27.585C235.829 29.609 236.5 31.336 237.842 32.766C239.184 34.174 240.823 34.878 242.759 34.878Z" fill="black"/>
<path d="M259.115 34.482C260.325 35.758 261.975 36.396 264.065 36.396C266.771 36.396 268.795 35.219 270.137 32.865V36H271.754V19.17H270.137V28.905C270.137 30.643 269.576 32.084 268.454 33.228C267.354 34.35 265.968 34.911 264.296 34.911C262.624 34.911 261.315 34.394 260.369 33.36C259.423 32.326 258.95 30.929 258.95 29.169V19.17H257.333V29.466C257.333 31.512 257.927 33.184 259.115 34.482Z" fill="black"/>
<path d="M284.667 36.33C283.457 36.33 282.225 36.11 280.971 35.67C279.739 35.208 278.672 34.614 277.77 33.888L278.727 32.601C280.641 34.075 282.654 34.812 284.766 34.812C285.932 34.812 286.9 34.515 287.67 33.921C288.44 33.327 288.825 32.535 288.825 31.545C288.825 30.643 288.44 29.961 287.67 29.499C286.922 29.037 285.822 28.597 284.37 28.179C283.6 27.959 283.039 27.794 282.687 27.684C282.335 27.574 281.84 27.376 281.202 27.09C280.564 26.804 280.091 26.518 279.783 26.232C279.497 25.946 279.222 25.572 278.958 25.11C278.716 24.626 278.595 24.087 278.595 23.493C278.595 22.129 279.112 21.018 280.146 20.16C281.18 19.28 282.511 18.84 284.139 18.84C286.273 18.84 288.264 19.456 290.112 20.688L289.254 22.041C287.56 20.919 285.833 20.358 284.073 20.358C282.929 20.358 282.005 20.644 281.301 21.216C280.597 21.766 280.245 22.481 280.245 23.361C280.245 23.713 280.333 24.043 280.509 24.351C280.707 24.659 280.927 24.912 281.169 25.11C281.433 25.308 281.796 25.517 282.258 25.737C282.742 25.935 283.149 26.089 283.479 26.199C283.831 26.309 284.315 26.452 284.931 26.628C285.767 26.87 286.449 27.09 286.977 27.288C287.505 27.486 288.066 27.772 288.66 28.146C289.276 28.52 289.727 28.982 290.013 29.532C290.321 30.06 290.475 30.687 290.475 31.413C290.475 32.887 289.914 34.075 288.792 34.977C287.692 35.879 286.317 36.33 284.667 36.33Z" fill="black"/>
<path fill-rule="evenodd" clip-rule="evenodd" d="M298.199 33.921C299.827 35.571 301.774 36.396 304.04 36.396C306.724 36.396 309.045 35.34 311.003 33.228L309.881 32.238C308.231 33.998 306.306 34.878 304.106 34.878C302.39 34.878 300.894 34.284 299.618 33.096C298.364 31.886 297.66 30.269 297.506 28.245H311.465C311.487 28.069 311.498 27.849 311.498 27.585C311.498 25.055 310.783 22.954 309.353 21.282C307.945 19.61 306.086 18.774 303.776 18.774C301.51 18.774 299.607 19.621 298.067 21.315C296.549 23.009 295.79 25.088 295.79 27.552C295.79 30.148 296.593 32.271 298.199 33.921ZM308 22.14C309.034 23.394 309.617 24.945 309.749 26.793H297.506C297.66 24.923 298.32 23.372 299.486 22.14C300.652 20.886 302.06 20.259 303.71 20.259C305.536 20.259 306.966 20.886 308 22.14Z" fill="black"/>
<path d="M65.3685 28.509H57.9435V36H51.9375V12.9H66.3255V18.18H57.9435V23.229H65.3685V28.509Z" fill="black"/>
<path d="M91.9069 18.18H97.5829V36H103.424V18.18H109.067V12.9H91.9069V18.18Z" fill="black"/>
<path d="M133.273 12.9V36H127.234V26.727H120.106V36H114.067V12.9H120.106V21.282H127.234V12.9H133.273Z" fill="black"/>
<path d="M154.912 18.18V12.9H140.491V36H155.209V30.753H146.365V26.694H154.219V21.447H146.365V18.18H154.912Z" fill="black"/>
<path d="M209.206 36V12.9H210.922V23.592H225.706V12.9H227.422V36H225.706V25.176H210.922V36H209.206Z" fill="black"/>
<path d="M7 24H0L10.1667 14V4H15.5V8.7907L24.5 0H25.5L49.5 24H43L25.5 6.5H24.5L7 24Z" fill="#FD3502"/>
<path d="M15.5 18.6667L10 24V36.5H15.5V30H20.6667V24.5H15.5V18.6667Z" fill="#FF7E00"/>
<path fill-rule="evenodd" clip-rule="evenodd" d="M40 24V36.5H34.5V30H27.5V36.5H22.5V20H27.5V24.5H34.5V18.6667V18.5L40 24Z" fill="#FD3502"/>
<path d="M15.5 18.6667H34.5V18.5L29.5 13.5H20.6667L15.5 18.6667Z" fill="#FF7E00"/>
</svg>
