<svg width="32" height="42" viewBox="0 0 32 42" fill="none" xmlns="http://www.w3.org/2000/svg">
<path d="M3.06225 41.944L2.50225 41.384L2.16625 41.72C1.55025 41.104 1.27025 40.656 1.27025 40.264C1.27025 39.984 1.10225 39.816 0.82225 39.816L0.26225 39.032L1.04625 37.688V37.52L1.10225 37.296C1.10225 37.072 1.04625 36.904 0.93425 36.904C0.71025 36.904 0.43025 36.68 0.26225 36.232C1.15825 34.496 4.68625 28.784 6.08625 26.936L8.15825 24.136C9.67025 22.064 11.4062 19.88 13.2543 17.752L12.3583 15.736L11.6863 14.056C10.6783 11.592 9.83825 9.576 9.33425 8.008C8.83025 6.44 8.55025 5.544 8.55025 5.264C8.71825 4.48 8.88625 3.864 8.99825 3.528H9.78225C9.89425 3.248 9.95025 3.08 10.0623 3.08C10.2303 3.136 10.3423 3.248 10.5103 3.416C10.6783 3.528 10.8463 3.64 10.9023 3.64L11.5743 2.968L12.0223 3.528L12.2463 2.184C12.6943 2.184 12.9743 2.296 13.0303 2.408C13.0863 2.576 13.1983 2.632 13.4783 2.688L13.7023 2.744H13.8143L16.1663 7.56L18.2943 11.704C20.3103 9.184 21.9343 7.168 23.2783 5.768C24.6783 4.312 26.0223 2.688 27.5903 0.839999L27.9263 1.512L28.2063 1.288L28.6543 1.064C28.7663 1.12 28.7663 1.232 28.7663 1.456C28.7663 1.68 28.8783 1.848 29.0462 1.96L29.2703 2.072C29.4943 2.072 29.8303 1.848 30.3342 1.4C30.8383 0.951998 31.1183 0.727997 31.1743 0.727997C31.2303 0.727997 31.2863 0.784 31.2863 0.839999C31.3423 1.064 31.3423 1.288 31.3423 1.512C31.3423 1.736 31.3983 1.96 31.5663 2.184C31.6783 2.352 31.7343 2.576 31.7343 2.8C31.7343 3.416 31.5663 3.976 31.1183 4.536C30.6703 5.096 28.0383 8.568 23.2223 14.952L21.2063 17.64L22.6623 20.664C24.7903 25.088 25.9663 27.664 26.2463 28.392L26.6383 29.4C27.1983 30.856 27.4783 31.696 27.4783 31.864C27.4783 32.144 27.0863 32.368 26.7503 32.368L26.5823 32.312H26.4703C26.3023 32.312 26.1343 32.48 25.9103 32.76L25.6862 33.992L24.9023 33.768L24.8463 33.936L24.6783 34.776C23.4463 34.72 23.1663 34.608 21.7103 32.816C20.9823 31.92 19.9183 30.184 18.4063 27.608L16.3903 24.136L13.5903 28.168C10.7903 32.2 8.32625 36.12 6.64625 39.256C5.80625 40.824 4.91025 41.72 3.95825 41.832L3.28625 41.496L3.06225 41.944Z" fill="#FF0000"/>
</svg>
